<svg width="16" height="16" viewBox="0 0 16 16" fill="none" xmlns="http://www.w3.org/2000/svg">
<rect width="16" height="16" fill="#222222"/>
<path d="M3.6432 10.6464V10.096H3.08V9.5456H2.5104V9.0016H1.9472V8.4512H1.384V7.5872H1.9472V7.0368H2.5104V6.4864H3.08V5.9424H3.6432V5.392H4.4624V6.2688H3.8928V6.8128H3.3296V7.3632H2.76V7.9072H2.1968V8.1248H2.76V8.6752H3.3296V9.2192H3.8928V9.7696H4.4624V10.6464H3.6432ZM5.2023 10.0768L7.2375 5.9616H7.9799L5.9447 10.0768H5.2023ZM8.73415 10V9.1232H10.923V10H8.73415ZM11.6903 10.6464V9.7696H12.2535V9.2192H12.8231V8.6752H13.3863V8.1248H13.9559V7.9072H13.3863V7.3632H12.8231V6.8128H12.2535V6.2688H11.6903V5.392H12.5031V5.9424H13.0663V6.4864H13.6359V7.0368H14.1927V7.5872H14.7687V8.4512H14.1927V9.0016H13.6359V9.5456H13.0663V10.096H12.5031V10.6464H11.6903Z" fill="white"/>
</svg>
